{"accessors":[{"bufferView":2,"componentType":5126,"count":2705,"max":[1.5944700241088867,1.0182299613952637,2.6042349338531494],"min":[-1.5944700241088867,-1.0206657648086548,-1.488843560218811],"type":"VEC3"},{"bufferView":2,"byteOffset":32460,"componentType":5126,"count":2705,"max":[0.9998151063919067,0.9999792575836182,0.9998957514762878],"min":[-0.9998151063919067,-0.9999993443489075,-1],"type":"VEC3"},{"bufferView":3,"componentType":5126,"count":2705,"max":[1,0.999983012676239,0.9994218945503235,1],"min":[-0.9997736215591431,-0.9999991655349731,-0.999555766582489,-1],"type":"VEC4"},{"bufferView":1,"componentType":5126,"count":2705,"max":[0.9980400204658508,0.8921099901199341],"min":[0.0019499999471008778,0.0019499999471008778],"type":"VEC2"},{"bufferView":0,"componentType":5125,"count":15084,"type":"SCALAR"}],"asset":{"extras":{"author":"ricksticky (https://sketchfab.com/ricksticky)","license":"CC-BY-4.0 (http://creativecommons.org/licenses/by/4.0/)","source":"https://sketchfab.com/3d-models/penguin-1b10b96e94634a7aa50783c4a99b8805","title":"Penguin"},"generator":"Sketchfab-12.65.0","version":"2.0"},"bufferViews":[{"buffer":0,"byteLength":60336,"name":"floatBufferViews","target":34963},{"buffer":0,"byteLength":21640,"byteOffset":60336,"byteStride":8,"name":"floatBufferViews","target":34962},{"buffer":0,"byteLength":64920,"byteOffset":81976,"byteStride":12,"name":"floatBufferViews","target":34962},{"buffer":0,"byteLength":43280,"byteOffset":146896,"byteStride":16,"name":"floatBufferViews","target":34962}],"buffers":[{"byteLength":190176,"uri":"data:application/octet-stream;base64,"}],"images":[{"uri":"data:application/octet-stream;base64,"},{"uri":"data:application/octet-stream;base64,"}],"materials":[{"doubleSided":true,"name":"defaultMat","normalTexture":{"index":1},"pbrMetallicRoughness":{"baseColorTexture":{"index":0},"metallicFactor":0,"roughnessFactor":0.6}}],"meshes":[{"name":"Object_0","primitives":[{"attributes":{"NORMAL":1,"POSITION":0,"TANGENT":2,"TEXCOORD_0":3},"indices":4,"material":0,"mode":4}]}],"nodes":[{"children":[1],"matrix":[0.14582781493663788,0,0,0,0,3.238027955468634e-17,-0.14582781493663788,0,0,0.14582781493663788,3.238027955468634e-17,0,0,0,0,1],"name":"Sketchfab_model"},{"children":[2],"name":"c2d43016bd7e42fabaf296c50f39e1d3.obj.cleaner.materialmerger.gles"},{"mesh":0,"name":"Object_2"}],"samplers":[{"magFilter":9729,"minFilter":9987,"wrapS":10497,"wrapT":10497}],"scene":0,"scenes":[{"name":"Sketchfab_Scene","nodes":[0]}],"textures":[{"sampler":0,"source":0},{"sampler":0,"source":1}]}